<?xml version="1.0" encoding="UTF-8"?>
<svg width="123px" height="297px" viewBox="0 0 123 297" version="1.1" xmlns="http://www.w3.org/2000/svg" xmlns:xlink="http://www.w3.org/1999/xlink">
    <!-- Generator: Sketch 63.1 (92452) - https://sketch.com -->
    <title>Rating/rate#1</title>
    <desc>Created with Sketch.</desc>
    <g id="Page-1" stroke="none" stroke-width="1" fill="none" fill-rule="evenodd">
        <g id="Rating/rate#1">
            <g transform="translate(0.000000, 0.025062)" id="Rating/all_stars/#1">
                <g transform="translate(0.000000, 0.419995)">
                    <g id="all_stars#1">
                        <g id="0" fill="#D2D4D4">
                            <polygon id="Star" points="10.6400004 16.5421337 4.06411851 19.9500006 5.32000019 12.7320226 0 7.62022216 7.35205944 6.56713337 10.6400004 0 13.9279413 6.56713337 21.2800007 7.62022216 15.9600006 12.7320226 17.2158822 19.9500006"/>
                            <polygon id="Star-Copy" points="35.9100012 16.5421338 29.3341193 19.9500006 30.5900011 12.7320226 25.2700008 7.6202222 32.6220603 6.56713339 35.9100012 0 39.197942 6.56713339 46.5500015 7.6202222 41.2300013 12.7320226 42.485883 19.9500006"/>
                            <polygon id="Star-Copy-2" points="61.180002 16.5421338 54.6041201 19.9500006 55.8600019 12.7320226 50.5400016 7.6202222 57.8920611 6.56713339 61.180002 0 64.4679428 6.56713339 71.8200023 7.6202222 66.5000021 12.7320226 67.7558839 19.9500006"/>
                            <polygon id="Star-Copy-3" points="86.4500028 16.5421338 79.8741209 19.9500006 81.1300027 12.7320226 75.8100024 7.6202222 83.1620619 6.56713339 86.4500028 0 89.7379437 6.56713339 97.0900031 7.6202222 91.7700029 12.7320226 93.0258847 19.9500006"/>
                            <polygon id="Star-Copy-4" points="111.720004 16.5421338 105.144122 19.9500006 106.400004 12.7320226 101.080003 7.6202222 108.432063 6.56713339 111.720004 0 115.007944 6.56713339 122.360004 7.6202222 117.040004 12.7320226 118.295885 19.9500006"/>
                        </g>
                        <g id="0,5" transform="translate(0.000000, 27.930001)">
                            <polygon id="Star" fill="#D2D4D4" points="10.6400004 16.5421337 4.06411851 19.9500006 5.32000019 12.7320226 0 7.62022216 7.35205944 6.56713337 10.6400004 0 13.9279413 6.56713337 21.2800007 7.62022216 15.9600006 12.7320226 17.2158822 19.9500006"/>
                            <polygon id="Combined-Shape" fill="#FFCE2B" points="10.6400003 16.5434094 4.06687048 19.9500006 5.32360257 12.7268159 0 7.61132801 7.35703781 6.55747956 10.6400003 0"/>
                            <polygon id="Star-Copy" fill="#D2D4D4" points="35.9100012 16.5421338 29.3341193 19.9500006 30.5900011 12.7320226 25.2700008 7.6202222 32.6220603 6.56713339 35.9100012 0 39.197942 6.56713339 46.5500015 7.6202222 41.2300013 12.7320226 42.485883 19.9500006"/>
                            <polygon id="Star-Copy-2" fill="#D2D4D4" points="61.180002 16.5421338 54.6041201 19.9500006 55.8600019 12.7320226 50.5400016 7.6202222 57.8920611 6.56713339 61.180002 0 64.4679428 6.56713339 71.8200023 7.6202222 66.5000021 12.7320226 67.7558839 19.9500006"/>
                            <polygon id="Star-Copy-3" fill="#D2D4D4" points="86.4500028 16.5421338 79.8741209 19.9500006 81.1300027 12.7320226 75.8100024 7.6202222 83.1620619 6.56713339 86.4500028 0 89.7379437 6.56713339 97.0900031 7.6202222 91.7700029 12.7320226 93.0258847 19.9500006"/>
                            <polygon id="Star-Copy-4" fill="#D2D4D4" points="111.720004 16.5421338 105.144122 19.9500006 106.400004 12.7320226 101.080003 7.6202222 108.432063 6.56713339 111.720004 0 115.007944 6.56713339 122.360004 7.6202222 117.040004 12.7320226 118.295885 19.9500006"/>
                        </g>
                        <g id="1" transform="translate(0.000000, 55.860002)">
                            <polygon id="Star" fill="#FFCE2B" points="10.6400004 16.5421337 4.06411851 19.9500006 5.32000019 12.7320226 0 7.62022216 7.35205944 6.56713337 10.6400004 0 13.9279413 6.56713337 21.2800007 7.62022216 15.9600006 12.7320226 17.2158822 19.9500006"/>
                            <polygon id="Star-Copy" fill="#D2D4D4" points="35.9100012 16.5421338 29.3341193 19.9500006 30.5900011 12.7320226 25.2700008 7.6202222 32.6220603 6.56713339 35.9100012 0 39.197942 6.56713339 46.5500015 7.6202222 41.2300013 12.7320226 42.485883 19.9500006"/>
                            <polygon id="Star-Copy-2" fill="#D2D4D4" points="61.180002 16.5421338 54.6041201 19.9500006 55.8600019 12.7320226 50.5400016 7.6202222 57.8920611 6.56713339 61.180002 0 64.4679428 6.56713339 71.8200023 7.6202222 66.5000021 12.7320226 67.7558839 19.9500006"/>
                            <polygon id="Star-Copy-3" fill="#D2D4D4" points="86.4500028 16.5421338 79.8741209 19.9500006 81.1300027 12.7320226 75.8100024 7.6202222 83.1620619 6.56713339 86.4500028 0 89.7379437 6.56713339 97.0900031 7.6202222 91.7700029 12.7320226 93.0258847 19.9500006"/>
                            <polygon id="Star-Copy-4" fill="#D2D4D4" points="111.720004 16.5421338 105.144122 19.9500006 106.400004 12.7320226 101.080003 7.6202222 108.432063 6.56713339 111.720004 0 115.007944 6.56713339 122.360004 7.6202222 117.040004 12.7320226 118.295885 19.9500006"/>
                        </g>
                        <g id="1,5" transform="translate(0.000000, 83.790003)">
                            <polygon id="Star" fill="#FFCE2B" points="10.6400004 16.5421337 4.06411851 19.9500006 5.32000019 12.7320226 0 7.62022216 7.35205944 6.56713337 10.6400004 0 13.9279413 6.56713337 21.2800007 7.62022216 15.9600006 12.7320226 17.2158822 19.9500006"/>
                            <polygon id="Star-Copy" fill="#D2D4D4" points="35.9100012 16.5421338 29.3341193 19.9500006 30.5900011 12.7320226 25.2700008 7.6202222 32.6220603 6.56713339 35.9100012 0 39.197942 6.56713339 46.5500015 7.6202222 41.2300013 12.7320226 42.485883 19.9500006"/>
                            <polygon id="Star-Copy-2" fill="#D2D4D4" points="61.180002 16.5421338 54.6041201 19.9500006 55.8600019 12.7320226 50.5400016 7.6202222 57.8920611 6.56713339 61.180002 0 64.4679428 6.56713339 71.8200023 7.6202222 66.5000021 12.7320226 67.7558839 19.9500006"/>
                            <polygon id="Star-Copy-3" fill="#D2D4D4" points="86.4500028 16.5421338 79.8741209 19.9500006 81.1300027 12.7320226 75.8100024 7.6202222 83.1620619 6.56713339 86.4500028 0 89.7379437 6.56713339 97.0900031 7.6202222 91.7700029 12.7320226 93.0258847 19.9500006"/>
                            <polygon id="Star-Copy-4" fill="#D2D4D4" points="111.720004 16.5421338 105.144122 19.9500006 106.400004 12.7320226 101.080003 7.6202222 108.432063 6.56713339 111.720004 0 115.007944 6.56713339 122.360004 7.6202222 117.040004 12.7320226 118.295885 19.9500006"/>
                            <polygon id="Combined-Shape-Copy" fill="#FFCE2B" points="35.9100012 16.5434094 29.3368713 19.9500006 30.5936033 12.7268159 25.2700008 7.61132801 32.6270386 6.55747956 35.9100012 -5.67013121e-14"/>
                        </g>
                        <g id="2" transform="translate(0.000000, 111.720004)">
                            <polygon id="Star" fill="#FFCE2B" points="10.6400004 16.5421337 4.06411851 19.9500006 5.32000019 12.7320226 0 7.62022216 7.35205944 6.56713337 10.6400004 0 13.9279413 6.56713337 21.2800007 7.62022216 15.9600006 12.7320226 17.2158822 19.9500006"/>
                            <polygon id="Star-Copy" fill="#FFCE2B" points="35.9100012 16.5421338 29.3341193 19.9500006 30.5900011 12.7320226 25.2700008 7.6202222 32.6220603 6.56713339 35.9100012 0 39.197942 6.56713339 46.5500015 7.6202222 41.2300013 12.7320226 42.485883 19.9500006"/>
                            <polygon id="Star-Copy-2" fill="#D2D4D4" points="61.180002 16.5421338 54.6041201 19.9500006 55.8600019 12.7320226 50.5400016 7.6202222 57.8920611 6.56713339 61.180002 0 64.4679428 6.56713339 71.8200023 7.6202222 66.5000021 12.7320226 67.7558839 19.9500006"/>
                            <polygon id="Star-Copy-3" fill="#D2D4D4" points="86.4500028 16.5421338 79.8741209 19.9500006 81.1300027 12.7320226 75.8100024 7.6202222 83.1620619 6.56713339 86.4500028 0 89.7379437 6.56713339 97.0900031 7.6202222 91.7700029 12.7320226 93.0258847 19.9500006"/>
                            <polygon id="Star-Copy-4" fill="#D2D4D4" points="111.720004 16.5421338 105.144122 19.9500006 106.400004 12.7320226 101.080003 7.6202222 108.432063 6.56713339 111.720004 0 115.007944 6.56713339 122.360004 7.6202222 117.040004 12.7320226 118.295885 19.9500006"/>
                        </g>
                        <g id="2,5" transform="translate(0.000000, 139.650005)">
                            <polygon id="Star" fill="#FFCE2B" points="10.6400004 16.5421337 4.06411851 19.9500006 5.32000019 12.7320226 0 7.62022216 7.35205944 6.56713337 10.6400004 0 13.9279413 6.56713337 21.2800007 7.62022216 15.9600006 12.7320226 17.2158822 19.9500006"/>
                            <polygon id="Star-Copy" fill="#FFCE2B" points="35.9100012 16.5421338 29.3341193 19.9500006 30.5900011 12.7320226 25.2700008 7.6202222 32.6220603 6.56713339 35.9100012 0 39.197942 6.56713339 46.5500015 7.6202222 41.2300013 12.7320226 42.485883 19.9500006"/>
                            <polygon id="Star-Copy-2" fill="#D2D4D4" points="61.180002 16.5421338 54.6041201 19.9500006 55.8600019 12.7320226 50.5400016 7.6202222 57.8920611 6.56713339 61.180002 0 64.4679428 6.56713339 71.8200023 7.6202222 66.5000021 12.7320226 67.7558839 19.9500006"/>
                            <polygon id="Star-Copy-3" fill="#D2D4D4" points="86.4500028 16.5421338 79.8741209 19.9500006 81.1300027 12.7320226 75.8100024 7.6202222 83.1620619 6.56713339 86.4500028 0 89.7379437 6.56713339 97.0900031 7.6202222 91.7700029 12.7320226 93.0258847 19.9500006"/>
                            <polygon id="Star-Copy-4" fill="#D2D4D4" points="111.720004 16.5421338 105.144122 19.9500006 106.400004 12.7320226 101.080003 7.6202222 108.432063 6.56713339 111.720004 0 115.007944 6.56713339 122.360004 7.6202222 117.040004 12.7320226 118.295885 19.9500006"/>
                            <polygon id="Combined-Shape-Copy-2" fill="#FFCE2B" points="61.180002 16.5434094 54.6068721 19.9500006 55.8636042 12.7268159 50.5400016 7.61132801 57.8970394 6.55747956 61.180002 0"/>
                        </g>
                        <g id="3" transform="translate(0.000000, 167.580005)">
                            <polygon id="Star" fill="#FFCE2B" points="10.6400004 16.5421337 4.06411851 19.9500006 5.32000019 12.7320226 0 7.62022216 7.35205944 6.56713337 10.6400004 0 13.9279413 6.56713337 21.2800007 7.62022216 15.9600006 12.7320226 17.2158822 19.9500006"/>
                            <polygon id="Star-Copy" fill="#FFCE2B" points="35.9100012 16.5421338 29.3341193 19.9500006 30.5900011 12.7320226 25.2700008 7.6202222 32.6220603 6.56713339 35.9100012 0 39.197942 6.56713339 46.5500015 7.6202222 41.2300013 12.7320226 42.485883 19.9500006"/>
                            <polygon id="Star-Copy-2" fill="#FFCE2B" points="61.180002 16.5421338 54.6041201 19.9500006 55.8600019 12.7320226 50.5400016 7.6202222 57.8920611 6.56713339 61.180002 0 64.4679428 6.56713339 71.8200023 7.6202222 66.5000021 12.7320226 67.7558839 19.9500006"/>
                            <polygon id="Star-Copy-3" fill="#D2D4D4" points="86.4500028 16.5421338 79.8741209 19.9500006 81.1300027 12.7320226 75.8100024 7.6202222 83.1620619 6.56713339 86.4500028 0 89.7379437 6.56713339 97.0900031 7.6202222 91.7700029 12.7320226 93.0258847 19.9500006"/>
                            <polygon id="Star-Copy-4" fill="#D2D4D4" points="111.720004 16.5421338 105.144122 19.9500006 106.400004 12.7320226 101.080003 7.6202222 108.432063 6.56713339 111.720004 0 115.007944 6.56713339 122.360004 7.6202222 117.040004 12.7320226 118.295885 19.9500006"/>
                        </g>
                        <g id="3,5" transform="translate(0.000000, 195.510006)">
                            <polygon id="Star" fill="#FFCE2B" points="10.6400004 16.5421337 4.06411851 19.9500006 5.32000019 12.7320226 0 7.62022216 7.35205944 6.56713337 10.6400004 0 13.9279413 6.56713337 21.2800007 7.62022216 15.9600006 12.7320226 17.2158822 19.9500006"/>
                            <polygon id="Star-Copy" fill="#FFCE2B" points="35.9100012 16.5421338 29.3341193 19.9500006 30.5900011 12.7320226 25.2700008 7.6202222 32.6220603 6.56713339 35.9100012 0 39.197942 6.56713339 46.5500015 7.6202222 41.2300013 12.7320226 42.485883 19.9500006"/>
                            <polygon id="Star-Copy-2" fill="#FFCE2B" points="61.180002 16.5421338 54.6041201 19.9500006 55.8600019 12.7320226 50.5400016 7.6202222 57.8920611 6.56713339 61.180002 0 64.4679428 6.56713339 71.8200023 7.6202222 66.5000021 12.7320226 67.7558839 19.9500006"/>
                            <polygon id="Star-Copy-3" fill="#D2D4D4" points="86.4500028 16.5421338 79.8741209 19.9500006 81.1300027 12.7320226 75.8100024 7.6202222 83.1620619 6.56713339 86.4500028 0 89.7379437 6.56713339 97.0900031 7.6202222 91.7700029 12.7320226 93.0258847 19.9500006"/>
                            <polygon id="Star-Copy-4" fill="#D2D4D4" points="111.720004 16.5421338 105.144122 19.9500006 106.400004 12.7320226 101.080003 7.6202222 108.432063 6.56713339 111.720004 0 115.007944 6.56713339 122.360004 7.6202222 117.040004 12.7320226 118.295885 19.9500006"/>
                            <polygon id="Combined-Shape-Copy-3" fill="#FFCE2B" points="86.4500028 16.5434094 79.8768729 19.9500006 81.133605 12.7268159 75.8100024 7.61132801 83.1670402 6.55747956 86.4500028 0"/>
                        </g>
                        <g id="4" transform="translate(0.000000, 223.440007)">
                            <polygon id="Star" fill="#FFCE2B" points="10.6400004 16.5421337 4.06411851 19.9500006 5.32000019 12.7320226 0 7.62022216 7.35205944 6.56713337 10.6400004 0 13.9279413 6.56713337 21.2800007 7.62022216 15.9600006 12.7320226 17.2158822 19.9500006"/>
                            <polygon id="Star-Copy" fill="#FFCE2B" points="35.9100012 16.5421338 29.3341193 19.9500006 30.5900011 12.7320226 25.2700008 7.6202222 32.6220603 6.56713339 35.9100012 0 39.197942 6.56713339 46.5500015 7.6202222 41.2300013 12.7320226 42.485883 19.9500006"/>
                            <polygon id="Star-Copy-2" fill="#FFCE2B" points="61.180002 16.5421338 54.6041201 19.9500006 55.8600019 12.7320226 50.5400016 7.6202222 57.8920611 6.56713339 61.180002 0 64.4679428 6.56713339 71.8200023 7.6202222 66.5000021 12.7320226 67.7558839 19.9500006"/>
                            <polygon id="Star-Copy-3" fill="#FFCE2B" points="86.4500028 16.5421338 79.8741209 19.9500006 81.1300027 12.7320226 75.8100024 7.6202222 83.1620619 6.56713339 86.4500028 0 89.7379437 6.56713339 97.0900031 7.6202222 91.7700029 12.7320226 93.0258847 19.9500006"/>
                            <polygon id="Star-Copy-4" fill="#D2D4D4" points="111.720004 16.5421338 105.144122 19.9500006 106.400004 12.7320226 101.080003 7.6202222 108.432063 6.56713339 111.720004 0 115.007944 6.56713339 122.360004 7.6202222 117.040004 12.7320226 118.295885 19.9500006"/>
                        </g>
                        <g id="4,5" transform="translate(0.000000, 251.370008)">
                            <polygon id="Star" fill="#FFCE2B" points="10.6400004 16.5421337 4.06411851 19.9500006 5.32000019 12.7320226 0 7.62022216 7.35205944 6.56713337 10.6400004 0 13.9279413 6.56713337 21.2800007 7.62022216 15.9600006 12.7320226 17.2158822 19.9500006"/>
                            <polygon id="Star-Copy" fill="#FFCE2B" points="35.9100012 16.5421338 29.3341193 19.9500006 30.5900011 12.7320226 25.2700008 7.6202222 32.6220603 6.56713339 35.9100012 0 39.197942 6.56713339 46.5500015 7.6202222 41.2300013 12.7320226 42.485883 19.9500006"/>
                            <polygon id="Star-Copy-2" fill="#FFCE2B" points="61.180002 16.5421338 54.6041201 19.9500006 55.8600019 12.7320226 50.5400016 7.6202222 57.8920611 6.56713339 61.180002 0 64.4679428 6.56713339 71.8200023 7.6202222 66.5000021 12.7320226 67.7558839 19.9500006"/>
                            <polygon id="Star-Copy-3" fill="#FFCE2B" points="86.4500028 16.5421338 79.8741209 19.9500006 81.1300027 12.7320226 75.8100024 7.6202222 83.1620619 6.56713339 86.4500028 0 89.7379437 6.56713339 97.0900031 7.6202222 91.7700029 12.7320226 93.0258847 19.9500006"/>
                            <polygon id="Star-Copy-4" fill="#D2D4D4" points="111.720004 16.5421338 105.144122 19.9500006 106.400004 12.7320226 101.080003 7.6202222 108.432063 6.56713339 111.720004 0 115.007944 6.56713339 122.360004 7.6202222 117.040004 12.7320226 118.295885 19.9500006"/>
                            <polygon id="Combined-Shape-Copy-4" fill="#FFCE2B" points="111.720004 16.5434094 105.146874 19.9500006 106.403606 12.7268159 101.080003 7.61132801 108.437041 6.55747956 111.720004 -7.56017495e-14"/>
                        </g>
                        <g id="5" transform="translate(0.000000, 276.640009)" fill="#FFCE2B">
                            <polygon id="Star" points="10.6400004 16.5421337 4.06411851 19.9500006 5.32000019 12.7320226 0 7.62022216 7.35205944 6.56713337 10.6400004 0 13.9279413 6.56713337 21.2800007 7.62022216 15.9600006 12.7320226 17.2158822 19.9500006"/>
                            <polygon id="Star-Copy" points="35.9100012 16.5421338 29.3341193 19.9500006 30.5900011 12.7320226 25.2700008 7.6202222 32.6220603 6.56713339 35.9100012 0 39.197942 6.56713339 46.5500015 7.6202222 41.2300013 12.7320226 42.485883 19.9500006"/>
                            <polygon id="Star-Copy-2" points="61.180002 16.5421338 54.6041201 19.9500006 55.8600019 12.7320226 50.5400016 7.6202222 57.8920611 6.56713339 61.180002 0 64.4679428 6.56713339 71.8200023 7.6202222 66.5000021 12.7320226 67.7558839 19.9500006"/>
                            <polygon id="Star-Copy-3" points="86.4500028 16.5421338 79.8741209 19.9500006 81.1300027 12.7320226 75.8100024 7.6202222 83.1620619 6.56713339 86.4500028 0 89.7379437 6.56713339 97.0900031 7.6202222 91.7700029 12.7320226 93.0258847 19.9500006"/>
                            <polygon id="Star-Copy-4" points="111.720004 16.5421338 105.144122 19.9500006 106.400004 12.7320226 101.080003 7.6202222 108.432063 6.56713339 111.720004 0 115.007944 6.56713339 122.360004 7.6202222 117.040004 12.7320226 118.295885 19.9500006"/>
                        </g>
                    </g>
                </g>
            </g>
        </g>
    </g>
</svg>